<?xml version="1.0" encoding="iso-8859-1"?>
<!-- Generator: Adobe Illustrator 19.0.0, SVG Export Plug-In . SVG Version: 6.00 Build 0)  -->
<svg version="1.1" id="Layer_1" xmlns="http://www.w3.org/2000/svg" xmlns:xlink="http://www.w3.org/1999/xlink" x="0px" y="0px"
	 viewBox="0 0 512 512" style="enable-background:new 0 0 512 512;" xml:space="preserve">
<circle style="fill:#D6D6D6;" cx="81.456" cy="209.288" r="40.192"/>
	<g>
	<path style="fill:#333333;" d="M79.568,342.904l-38.832-84.176c0,0-40.736,0.544-40.736,38.016s0,46.16,0,46.16
		S79.84,342.904,79.568,342.904z"/>
		<path style="fill:#333333;" d="M83.36,342.904l38.832-84.176c0,0,40.736,0.544,40.736,38.016s0,46.16,0,46.16
		S83.088,342.904,83.36,342.904z"/>
</g>
	<polygon style="fill:#0BA4E0;" points="81.456,258.728 53.488,258.728 81.456,320.632 109.44,258.728 "/>
	<circle style="fill:#D6D6D6;" cx="430.544" cy="209.288" r="40.192"/>
	<g>
	<path style="fill:#333333;" d="M428.64,342.904l-38.832-84.176c0,0-40.736,0.544-40.736,38.016s0,46.16,0,46.16
		S428.912,342.904,428.64,342.904z"/>
		<path style="fill:#333333;" d="M432.432,342.904l38.832-84.176c0,0,40.736,0.544,40.736,38.016s0,46.16,0,46.16
		S432.16,342.904,432.432,342.904z"/>
</g>
	<g>
	<polygon style="fill:#0BA4E0;" points="430.544,258.728 402.56,258.728 430.544,320.632 458.512,258.728 	"/>
		<polygon style="fill:#0BA4E0;" points="282.096,267.112 272.544,254.264 308.656,227.4 272.544,200.52 282.096,187.672
		335.472,227.4 	"/>
		<rect x="190.064" y="219.4" style="fill:#0BA4E0;" width="132" height="16"/>
</g>
	<g>
</g>
	<g>
</g>
	<g>
</g>
	<g>
</g>
	<g>
</g>
	<g>
</g>
	<g>
</g>
	<g>
</g>
	<g>
</g>
	<g>
</g>
	<g>
</g>
	<g>
</g>
	<g>
</g>
	<g>
</g>
	<g>
</g>
</svg>
