<?xml version="1.0" ?><svg viewBox="0 0 64 64" xmlns="http://www.w3.org/2000/svg"><title/><g data-name="Layer 20" id="Layer_20"><path d="M60,18H59V17a3,3,0,0,0-3-3H8a3,3,0,0,0-3,3v1H4a3,3,0,0,0-3,3V44a3,3,0,0,0,3,3H8.42a5,5,0,0,0,9.16,0H48.42a5,5,0,0,0,9.16,0H60a3,3,0,0,0,3-3V21A3,3,0,0,0,60,18Zm1,3V34H51V20h9A1,1,0,0,1,61,21ZM7,17a1,1,0,0,1,1-1H56a1,1,0,0,1,1,1v1H7ZM4,20H49V35a1,1,0,0,0,1,1H61v5H56v0a4.88,4.88,0,0,0-6,0v0H47V30a1,1,0,0,0-1-1H34a1,1,0,0,0-1,1V41H16v0a4.88,4.88,0,0,0-6,0v0H3V21A1,1,0,0,1,4,20ZM41,31h4V45H41ZM39,45H35V31h4ZM4,45a1,1,0,0,1-1-1V43H8.42A4.94,4.94,0,0,0,8,45Zm9,3a3,3,0,1,1,3-3A3,3,0,0,1,13,48Zm4.58-5H33v2H18A4.94,4.94,0,0,0,17.58,43ZM47,45V43h1.42A4.94,4.94,0,0,0,48,45Zm6,3a3,3,0,1,1,3-3A3,3,0,0,1,53,48Zm7-3H58a4.94,4.94,0,0,0-.42-2H61v1A1,1,0,0,1,60,45Z"/><path d="M6,34H30a1,1,0,0,0,1-1V23a1,1,0,0,0-1-1H6a1,1,0,0,0-1,1V33A1,1,0,0,0,6,34Zm1-6h4v4H7Zm16,0v4H19V28Zm-6,4H13V28h4Zm8,0V28h4v4Zm4-8v2H7V24Z"/><path d="M34,28H46a1,1,0,0,0,1-1V23a1,1,0,0,0-1-1H34a1,1,0,0,0-1,1v4A1,1,0,0,0,34,28Zm1-4H45v2H35Z"/></g></svg>